PathFileType	4	(x/y/z)	S10_PSF_T03
DataRate	CameraRate	NumFrames	NumMarkers	Units	OrigDataRate	OrigDataStartFrame	OrigNumFrames
240	240	11	51	mm	240	386	440
Frame#	Time	Sternum			R.Acromium			L.Acromium			Top.Head			R.ASIS			L.ASIS			R.PSIS			L.PSIS			R.Great.Tro			L.Great.Tro			R.Iliac.Crest			L.Iliac.Crest			V.Sacral			R.Thigh.Upper.Post			R.Thigh.Lower.Ant			R.Thigh.Lower.Post			R.Thigh.Upper.Ant			R.Knee.Lat			R.Knee.Med			R.Shank.Upper.Post			R.Shank.Lower.Ant			R.Shank.Lower.Post			R.Shank.Upper.Ant			R.Ankle.Lat			R.Ankle.Med			R.Heel.Upper			R.Heel.Med			R.Heel.Lat			R.Toe.Lat			R.Toe.Med			R.Toe.Tip			L.Thigh.Upper.Post			L.Thigh.Lower.Ant			L.Thigh.Lower.Post			L.Thigh.Upper.Ant			L.Knee.Lat			L.Knee.Med			L.Shank.Upper.Post			L.Shank.Lower.Ant			L.Shank.Lower.Post			L.Shank.Upper.Ant			L.Ankle.Lat			L.Ankle.Med			L.Heel.Upper			L.Heel.Med			L.Heel.Lat			L.Toe.Lat			L.Toe.Med			L.Toe.Tip			Cervical.Spine			Back			
		X1	Y1	Z1	X2	Y2	Z2	X3	Y3	Z3	X4	Y4	Z4	X5	Y5	Z5	X6	Y6	Z6	X7	Y7	Z7	X8	Y8	Z8	X9	Y9	Z9	X10	Y10	Z10	X11	Y11	Z11	X12	Y12	Z12	X13	Y13	Z13	X14	Y14	Z14	X15	Y15	Z15	X16	Y16	Z16	X17	Y17	Z17	X18	Y18	Z18	X19	Y19	Z19	X20	Y20	Z20	X21	Y21	Z21	X22	Y22	Z22	X23	Y23	Z23	X24	Y24	Z24	X25	Y25	Z25	X26	Y26	Z26	X27	Y27	Z27	X28	Y28	Z28	X29	Y29	Z29	X30	Y30	Z30	X31	Y31	Z31	X32	Y32	Z32	X33	Y33	Z33	X34	Y34	Z34	X35	Y35	Z35	X36	Y36	Z36	X37	Y37	Z37	X38	Y38	Z38	X39	Y39	Z39	X40	Y40	Z40	X41	Y41	Z41	X42	Y42	Z42	X43	Y43	Z43	X44	Y44	Z44	X45	Y45	Z45	X46	Y46	Z46	X47	Y47	Z47	X48	Y48	Z48	X49	Y49	Z49	X50	Y50	Z50	X51	Y51	Z51	

386	1.6042	632.95	1272.1	300.8	499.9	1423.6	450.52	526.15	1455.6	147.89	484.02	1744.4	320.18	584.53	1006	401.52	574.61	1016.1	173.33	379.6	1020.8	327.69	382.15	1030.1	246.31	528.75	927.93	478.75	501.19	955.74	119.23	489.04	1083.9	449.35	508.84	1090.8	149.35	359.68	991.45	289.11	628.93	739.33	475.77	710.19	694.71	432.96	663.6	657.04	467.14	675.43	778.9	436.02	707.37	539.44	426.02	702.8	542.32	299.47	682.45	307.56	428.13	760.69	260.37	417.77	699.91	235.4	422.59	749.06	336.25	422.33	741.42	128.7	405.1	757.37	145.06	326.64	698.42	72.239	350.89	715.28	48.314	323.59	705.36	47.676	384.77	870.73	67.435	443.48	904.25	85.89	340.35	952.91	113.51	386.95	402.62	699.21	140.21	456.91	604.63	160.84	381.16	608.72	165.41	479.78	687.77	137.86	391.67	514	174.72	413.57	512.58	302.15	297.2	309.07	198.78	354.12	214.97	213.55	292.21	232.84	215.31	359.31	290.04	197.1	309.39	107.75	232.02	333.12	123.69	317.24	244.31	80.432	286.74	257.12	47.156	318.12	246.81	51.309	253.94	418.28	40.907	198.58	456.92	44.537	305.06	507.19	53.131	250.82	433.85	1490.6	300.95	352.49	1284.4	277.97
387	1.6083	638.2	1270.9	300.81	504.94	1422.3	450.55	531.6	1454.7	148.01	489.24	1743.3	320.57	589.94	1004.9	401.5	579.87	1014.9	173.28	384.92	1019.9	327.65	387.44	1029.2	246.3	533.96	926.61	478.68	506.2	954.83	119.08	494.4	1082.8	449.28	514.15	1089.7	149.25	364.92	990.6	289.1	632.75	737.14	475.58	713.68	691.97	432.75	666.75	654.59	466.79	679.59	776.42	435.95	711.09	537.55	425.27	705.95	539.97	298.56	692	305.36	427.73	771.5	260.19	417.2	711.42	233.61	422.09	757.82	335.81	421.7	755.87	127.96	404.68	771.05	144.69	326.12	714.18	70.18	350.69	731.64	46.723	323.3	721.94	45.867	384.57	886.99	70.13	442.65	919.64	89.428	339.34	967.7	118.35	385.73	406.2	699	140.21	459.87	604.07	160.87	384.21	608.65	165.43	483.27	687.07	137.75	394.19	513.8	174.69	416.19	512.32	302.13	298.63	309.36	198.82	355.02	214.92	213.58	293.2	233.12	215.43	360.62	289.96	197.12	309.68	107.92	232.14	333.53	123.86	317.36	244.42	80.562	286.91	257.21	47.241	318.26	246.87	51.465	254.09	418.29	40.885	198.59	456.98	44.434	305.08	507.27	52.951	250.8	439.13	1489.5	300.95	357.78	1283.3	277.67
388	1.6125	643.46	1269.7	300.85	509.99	1421	450.59	537.08	1453.8	148.14	494.47	1742.2	320.96	595.37	1003.8	401.49	585.15	1013.8	173.22	390.26	1018.9	327.61	392.75	1028.3	246.28	539.18	925.26	478.61	511.23	953.92	118.93	499.76	1081.7	449.21	519.47	1088.6	149.15	370.17	989.71	289.09	636.57	734.93	475.43	717.14	689.18	432.56	669.88	652.11	466.47	683.76	773.9	435.89	714.78	535.65	424.55	709.01	537.57	297.67	701.36	303.3	427.3	782.03	260.12	416.63	722.65	231.97	421.55	766.35	335.41	421.09	769.97	127.43	404.21	784.38	144.49	325.57	729.6	68.373	350.45	747.61	45.391	322.98	738.15	44.331	384.33	902.79	72.975	441.77	934.55	93.065	338.29	982	123.24	384.45	409.87	698.78	140.2	462.91	603.49	160.91	387.37	608.56	165.46	486.85	686.37	137.65	396.83	513.58	174.66	418.93	512.05	302.12	300.14	309.65	198.85	355.96	214.86	213.62	294.24	233.41	215.53	362.01	289.86	197.15	309.98	108.11	232.24	333.96	124.03	317.46	244.53	80.703	287.08	257.31	47.339	318.39	246.94	51.632	254.22	418.3	40.862	198.59	457.04	44.333	305.1	507.35	52.772	250.79	444.44	1488.5	300.98	363.09	1282.2	277.39
389	1.6167	648.74	1268.4	300.92	515.07	1419.6	450.64	542.58	1452.9	148.3	499.69	1741	321.35	600.81	1002.6	401.48	590.44	1012.6	173.16	395.62	1017.9	327.58	398.06	1027.3	246.27	544.43	923.9	478.54	516.28	953	118.77	505.12	1080.5	449.16	524.81	1087.5	149.07	375.44	988.8	289.07	640.42	732.72	475.3	720.61	686.37	432.38	673.02	649.63	466.2	687.93	771.36	435.82	718.44	533.75	423.87	711.99	535.15	296.8	710.51	301.36	426.84	792.25	260.12	416.05	733.6	230.49	420.98	774.66	335.07	420.47	783.7	127.07	403.7	797.34	144.45	324.99	744.63	66.804	350.17	763.15	44.299	322.61	753.93	43.047	384.05	918.09	75.932	440.85	948.95	96.765	337.18	995.8	128.14	383.13	413.63	698.53	140.19	466.05	602.89	160.95	390.63	608.44	165.49	490.52	685.66	137.54	399.57	513.34	174.64	421.78	511.76	302.1	301.72	309.94	198.87	356.96	214.8	213.65	295.35	233.72	215.62	363.46	289.76	197.18	310.3	108.31	232.34	334.41	124.21	317.56	244.65	80.859	287.24	257.4	47.453	318.52	247.01	51.81	254.36	418.32	40.838	198.59	457.1	44.235	305.12	507.43	52.592	250.78	449.78	1487.4	301.02	368.41	1281.1	277.12
390	1.6208	654.04	1267.2	301.01	520.18	1418.3	450.72	548.1	1452	148.47	504.92	1739.8	321.75	606.26	1001.5	401.47	595.73	1011.4	173.1	400.98	1016.9	327.56	403.39	1026.4	246.26	549.7	922.52	478.48	521.35	952.07	118.62	510.49	1079.3	449.11	530.15	1086.4	148.99	380.73	987.86	289.06	644.31	730.53	475.2	724.09	683.56	432.2	676.2	647.17	465.95	692.12	768.83	435.75	722.08	531.85	423.23	714.89	532.71	295.95	719.44	299.53	426.33	802.16	260.2	415.46	744.24	229.14	420.38	782.73	334.76	419.87	797.02	126.87	403.13	809.9	144.54	324.37	759.24	65.454	349.84	778.22	43.424	322.19	769.25	41.99	383.7	932.87	78.961	439.88	962.83	100.49	336.02	1009.1	133.02	381.76	417.48	698.25	140.18	469.29	602.27	161	393.98	608.3	165.53	494.27	684.94	137.42	402.43	513.08	174.63	424.75	511.44	302.09	303.38	310.24	198.89	358	214.72	213.68	296.51	234.03	215.68	364.99	289.64	197.21	310.63	108.52	232.42	334.86	124.4	317.65	244.76	81.031	287.39	257.49	47.586	318.64	247.08	52.002	254.48	418.34	40.813	198.59	457.16	44.14	305.13	507.51	52.412	250.76	455.15	1486.3	301.09	373.76	1280	276.87
391	1.625	659.35	1265.9	301.12	525.31	1417	450.81	553.65	1451	148.66	510.15	1738.7	322.15	611.71	1000.3	401.46	601.05	1010.3	173.02	406.35	1015.9	327.54	408.73	1025.4	246.25	555	921.14	478.43	526.44	951.14	118.47	515.87	1078.2	449.07	535.5	1085.3	148.91	386.04	986.89	289.06	648.25	728.36	475.12	727.61	680.78	432.03	679.42	644.74	465.74	696.35	766.31	435.68	725.71	529.97	422.62	717.75	530.29	295.13	728.14	297.82	425.78	811.74	260.33	414.85	754.55	227.93	419.73	790.56	334.48	419.26	809.9	126.81	402.51	822.04	144.76	323.71	773.37	64.303	349.45	792.79	42.741	321.71	784.07	41.136	383.29	947.1	82.018	438.86	976.16	104.2	334.82	1021.8	137.82	380.35	421.41	697.95	140.16	472.64	601.63	161.05	397.44	608.12	165.56	498.11	684.21	137.3	405.41	512.79	174.62	427.85	511.09	302.07	305.12	310.54	198.9	359.1	214.64	213.71	297.74	234.36	215.73	366.59	289.51	197.25	310.99	108.76	232.5	335.34	124.61	317.72	244.88	81.224	287.52	257.58	47.743	318.75	247.15	52.21	254.59	418.36	40.786	198.59	457.22	44.046	305.13	507.59	52.23	250.75	460.54	1485.2	301.18	379.12	1278.9	276.63
392	1.6292	664.67	1264.7	301.25	530.47	1415.6	450.91	559.22	1450.1	148.87	515.37	1737.5	322.56	617.18	999.1	401.45	606.37	1009.1	172.94	411.74	1014.8	327.54	414.08	1024.4	246.26	560.32	919.77	478.39	531.56	950.2	118.32	521.25	1077	449.03	540.85	1084.2	148.85	391.38	985.91	289.05	652.25	726.25	475.05	731.18	678.04	431.85	682.71	642.37	465.54	700.63	763.84	435.6	729.37	528.13	422.04	720.57	527.9	294.34	736.6	296.21	425.2	821	260.49	414.22	764.52	226.82	419.05	798.17	334.22	418.65	822.31	126.84	401.83	833.74	145.06	323.01	787	63.329	348.98	806.83	42.225	321.16	798.35	40.457	382.8	960.74	85.059	437.8	988.92	107.85	333.57	1034	142.51	378.91	425.42	697.62	140.13	476.09	600.97	161.09	401	607.91	165.6	502.04	683.46	137.18	408.51	512.48	174.61	431.06	510.71	302.06	306.94	310.84	198.89	360.25	214.55	213.74	299.03	234.7	215.76	368.27	289.37	197.29	311.36	109.01	232.55	335.83	124.82	317.79	245.01	81.442	287.63	257.67	47.929	318.85	247.22	52.438	254.69	418.38	40.756	198.59	457.28	43.956	305.12	507.68	52.046	250.73	465.96	1484.1	301.29	384.5	1277.9	276.42
393	1.6333	670.02	1263.4	301.4	535.66	1414.3	451.04	564.81	1449.2	149.1	520.6	1736.3	322.98	622.64	997.92	401.43	611.7	1007.9	172.86	417.13	1013.7	327.54	419.45	1023.4	246.27	565.67	918.42	478.36	536.7	949.25	118.17	526.65	1075.8	449.01	546.22	1083.1	148.78	396.73	984.9	289.05	656.34	724.19	474.99	734.83	675.38	431.67	686.1	640.06	465.35	704.97	761.42	435.5	733.05	526.33	421.49	723.38	525.56	293.58	744.8	294.7	424.59	829.91	260.67	413.57	774.13	225.81	418.32	805.53	333.96	418.04	834.22	126.96	401.09	844.97	145.43	322.25	800.08	62.509	348.44	820.29	41.847	320.54	812.04	39.924	382.23	973.77	88.038	436.69	1001.1	111.4	332.27	1045.6	147.03	377.44	429.52	697.25	140.1	479.65	600.3	161.12	404.67	607.66	165.64	506.05	682.71	137.05	411.72	512.14	174.62	434.41	510.3	302.05	308.85	311.15	198.88	361.46	214.46	213.77	300.39	235.05	215.77	370.02	289.22	197.32	311.75	109.28	232.6	336.34	125.05	317.84	245.14	81.689	287.73	257.76	48.148	318.93	247.29	52.69	254.78	418.41	40.725	198.58	457.35	43.869	305.11	507.77	51.86	250.71	471.41	1483	301.41	389.91	1276.8	276.21
394	1.6375	675.38	1262.1	301.57	540.89	1412.9	451.18	570.43	1448.2	149.34	525.83	1735.1	323.4	628.12	996.74	401.42	617.05	1006.8	172.77	422.53	1012.7	327.55	424.82	1022.4	246.29	571.05	917.08	478.34	541.87	948.29	118.03	532.06	1074.6	449	551.58	1082	148.72	402.11	983.87	289.05	660.51	722.21	474.93	738.57	672.81	431.47	689.59	637.84	465.17	709.37	759.09	435.39	736.78	524.58	420.97	726.2	523.3	292.85	752.74	293.28	423.94	838.49	260.84	412.89	783.37	224.87	417.56	812.67	333.7	417.42	845.61	127.12	400.29	855.71	145.85	321.44	812.59	61.818	347.82	833.14	41.581	319.84	825.13	39.509	381.58	986.18	90.907	435.53	1012.7	114.8	330.93	1056.6	151.33	375.95	433.71	696.86	140.06	483.32	599.6	161.13	408.43	607.38	165.67	510.15	681.95	136.92	415.06	511.77	174.62	437.88	509.85	302.03	310.85	311.47	198.85	362.72	214.36	213.79	301.81	235.42	215.75	371.86	289.05	197.36	312.17	109.57	232.63	336.87	125.3	317.88	245.27	81.971	287.79	257.86	48.406	318.99	247.36	52.969	254.84	418.44	40.69	198.57	457.42	43.785	305.09	507.86	51.671	250.7	476.89	1481.9	301.56	395.33	1275.7	276.03
395	1.6417	680.76	1260.8	301.76	546.14	1411.5	451.34	576.07	1447.3	149.61	531.06	1733.9	323.82	633.6	995.56	401.4	622.41	1005.6	172.67	427.94	1011.6	327.57	430.22	1021.4	246.31	576.46	915.78	478.33	547.07	947.33	117.89	537.48	1073.4	448.99	556.96	1080.9	148.67	407.52	982.83	289.06	664.79	720.31	474.86	742.41	670.36	431.25	693.21	635.72	464.99	713.86	756.86	435.27	740.57	522.9	420.47	729.04	521.13	292.16	760.41	291.93	423.25	846.72	260.99	412.18	792.24	224.01	416.75	819.57	333.41	416.79	856.45	127.3	399.42	865.96	146.28	320.58	824.5	61.233	347.1	845.36	41.396	319.06	837.57	39.183	380.83	997.94	93.622	434.32	1023.7	118.01	329.55	1067.1	155.37	374.44	437.99	696.44	140.02	487.11	598.9	161.14	412.31	607.06	165.71	514.33	681.17	136.78	418.51	511.37	174.64	441.48	509.36	302.02	312.93	311.79	198.8	364.03	214.26	213.81	303.3	235.8	215.71	373.77	288.88	197.39	312.6	109.89	232.63	337.42	125.56	317.9	245.41	82.292	287.83	257.95	48.709	319.04	247.44	53.28	254.89	418.48	40.651	198.55	457.49	43.706	305.07	507.95	51.479	250.67	482.4	1480.8	301.73	400.77	1274.6	275.86
396	1.6458	686.16	1259.5	301.96	551.43	1410.2	451.52	581.73	1446.4	149.89	536.29	1732.8	324.25	639.09	994.4	401.37	627.79	1004.5	172.58	433.36	1010.5	327.6	435.63	1020.3	246.34	581.89	914.52	478.34	552.3	946.35	117.77	542.91	1072.3	449	562.34	1079.8	148.62	412.95	981.77	289.08	669.17	718.52	474.79	746.38	668.03	431.01	696.97	633.71	464.79	718.43	754.74	435.12	744.44	521.28	419.99	731.94	519.07	291.51	767.81	290.65	422.54	854.61	261.1	411.43	800.73	223.19	415.91	826.26	333.1	416.13	866.74	127.47	398.48	875.68	146.69	319.66	835.77	60.728	346.3	856.91	41.267	318.2	849.33	38.917	380	1009	96.137	433.07	1034	120.98	328.13	1077	159.1	372.91	442.34	695.99	139.98	491.01	598.17	161.13	416.28	606.71	165.75	518.59	680.38	136.65	422.09	510.94	174.66	445.21	508.84	302	315.1	312.12	198.74	365.4	214.16	213.82	304.85	236.2	215.65	375.76	288.7	197.43	313.06	110.23	232.62	337.99	125.84	317.91	245.57	82.658	287.85	258.04	49.063	319.06	247.53	53.627	254.91	418.52	40.608	198.52	457.56	43.632	305.03	508.05	51.282	250.65	487.93	1479.7	301.92	406.23	1273.6	275.71
